<svg width="41" height="37" viewBox="0 0 41 37" fill="none" xmlns="http://www.w3.org/2000/svg">
<g clip-path="url(#clip0)">
<path fill-rule="evenodd" clip-rule="evenodd" d="M18.4323 0C23.513 0 28.121 2.07865 31.4294 5.40449C34.0288 8.01766 35.8602 11.4623 36.5692 15.2632H33.2017C32.5519 12.3531 31.134 9.79936 29.1254 7.72071C26.4078 4.98876 22.6268 3.26645 18.4323 3.26645C14.2378 3.26645 10.5159 4.98876 7.73919 7.72071C5.02161 10.4526 3.30836 14.2536 3.30836 18.4703C3.30836 22.687 5.02161 26.4286 7.73919 29.2199C10.4568 31.9518 14.2378 33.6742 18.4323 33.6742C22.6268 33.6742 26.3487 31.9518 29.1254 29.2199C31.134 27.2006 32.611 24.5281 33.2017 21.618H36.5692C35.9193 25.4783 34.0879 28.923 31.4294 31.5955C28.121 34.9213 23.513 37 18.4323 37C13.3516 37 8.74352 34.9213 5.43516 31.5955C2.06772 28.2697 0 23.6372 0 18.5297C0 13.4222 2.06772 8.78973 5.37608 5.46388C8.74352 2.07865 13.3516 0 18.4323 0Z" fill="#BE1116"/>
<path fill-rule="evenodd" clip-rule="evenodd" d="M18.4317 6.05786C21.8582 6.05786 24.9303 7.42383 27.1752 9.68065C28.7113 11.2248 29.8337 13.1253 30.3654 15.2633H26.8799C26.4072 14.0161 25.6983 12.9471 24.8121 11.9969C23.158 10.3339 20.913 9.32431 18.3727 9.32431C15.8323 9.32431 13.5874 10.3339 11.9332 11.9969C10.279 13.6598 9.27467 15.9166 9.27467 18.4704C9.27467 20.9648 10.279 23.281 11.9332 24.9439C13.5874 26.6068 15.8323 27.6164 18.3727 27.6164C20.913 27.6164 23.217 26.6068 24.8121 24.9439C25.7574 23.9937 26.4663 22.8652 26.9389 21.6181H30.4245C29.8337 23.8155 28.7113 25.7754 27.1752 27.3195C24.9303 29.5763 21.8582 31.0017 18.4317 31.0017C15.0052 31.0017 11.9332 29.6357 9.68821 27.3195C7.44326 25.0627 6.02539 21.9744 6.02539 18.5298C6.02539 15.0851 7.44326 11.9969 9.68821 9.74004C11.8741 7.42383 15.0052 6.05786 18.4317 6.05786Z" fill="#BE1116"/>
<path fill-rule="evenodd" clip-rule="evenodd" d="M17.96 14.2537C18.3736 14.2537 18.8462 14.3131 19.2007 14.4318L16.4831 16.6293L16.424 16.6887C16.1877 16.9262 15.9514 17.2232 15.8332 17.5201C15.8332 17.5795 15.7742 17.6389 15.7742 17.6983V17.7577V17.8171V17.8765C15.7742 17.9952 15.7151 18.0546 15.7151 18.1734V18.2328V18.3516V18.411V18.4704V18.5891C15.7151 18.6485 15.7151 18.6485 15.7151 18.7079V18.7673C15.7151 18.8267 15.7151 18.8861 15.7151 18.9455V19.0643V19.183V19.2424V19.3612V19.4206L15.7742 19.5394L15.8332 19.6582V19.7175L15.8923 19.7769L15.9514 19.8363L16.0105 19.8957L16.0695 19.9551L16.1286 20.0145L16.1877 20.0739C16.3059 20.2521 16.424 20.3708 16.6012 20.4896L19.3188 22.6277C18.9053 22.7464 18.4327 22.8652 18.0191 22.8652C15.7151 22.8652 13.8246 20.9647 13.8246 18.6485C13.7064 16.1541 15.5969 14.2537 17.96 14.2537Z" fill="#BE1116"/>
<path fill-rule="evenodd" clip-rule="evenodd" d="M22.568 13.3034C23.2178 12.7689 24.2222 12.8876 24.7539 13.6003C25.2856 14.2536 25.1674 15.2632 24.4585 15.7978L23.0406 16.9262H39.5824C40.4095 16.9262 41.0593 17.5795 41.0593 18.4109V18.5891C41.0593 19.4205 40.4095 20.0738 39.5824 20.0738C36.215 20.0738 27.8259 20.0738 23.0406 20.0738L24.3994 21.1429C25.0492 21.6774 25.2265 22.6276 24.7539 23.2809C24.2222 23.9936 23.2178 24.1718 22.568 23.5779L17.7236 19.7175C17.6054 19.6581 17.5464 19.5393 17.4282 19.4799L17.3691 19.4205L17.3101 19.3612L17.251 19.3018V19.2424C17.251 19.183 17.251 19.183 17.251 19.1236V19.0642V19.0048V18.9454V18.886V18.8266V18.7673C17.251 18.7079 17.251 18.6485 17.3101 18.5891C17.3101 18.5297 17.3101 18.5297 17.3691 18.4703C17.4873 18.2921 17.6054 18.114 17.7827 17.9358L17.8418 17.8764L22.568 13.3034Z" fill="#3D4B53"/>
</g>
<defs>
<clipPath id="clip0">
<rect width="41" height="37" fill="white"/>
</clipPath>
</defs>
</svg>
