<svg width="41" height="35" viewBox="0 0 41 35" fill="none" xmlns="http://www.w3.org/2000/svg">
<g clip-path="url(#clip0)">
<path d="M11.0292 7.87654C11.8684 7.87654 12.5877 7.16588 12.5877 6.33678C12.5877 5.44845 11.8684 4.73779 11.0292 4.73779C10.19 4.73779 9.4707 5.44845 9.4707 6.27756C9.4707 7.16588 10.19 7.87654 11.0292 7.87654Z" fill="#3D4B53"/>
<path d="M22.2983 27.1829C22.8977 27.7751 23.9167 27.7751 24.5161 27.1829C24.636 27.0644 24.6959 26.946 24.7559 26.8275L30.2705 17.4113L30.81 21.0238C30.9298 21.8529 31.7091 22.4451 32.5483 22.3267C33.3874 22.2082 33.9869 21.4384 33.867 20.6093L32.7281 12.5551V12.4959V12.4367C32.6681 12.1998 32.6082 12.0221 32.4883 11.8444C32.4883 11.7852 32.4284 11.7852 32.4284 11.7852C32.3684 11.726 32.3684 11.726 32.3085 11.6668H32.2486H32.1886H32.1287C32.1287 11.6668 32.0687 11.6668 32.0687 11.6076C32.0088 11.6076 32.0088 11.5483 31.9488 11.5483H31.8889H31.829H31.769H31.7091H31.6491C31.5293 11.5483 31.4094 11.6076 31.2895 11.6668L22.7778 14.5094C21.9986 14.8055 21.579 15.6939 21.9386 16.523C22.2383 17.2928 23.1374 17.7074 23.9766 17.3521L27.5731 15.9307L23.0775 23.5703L19.5409 19.9578C19.481 19.8394 19.3611 19.7801 19.2412 19.7209C18.5219 19.3064 17.5629 19.484 17.0833 20.2539L9.47077 32.6905C9.05118 33.4011 9.23101 34.3487 10.0102 34.8225C10.7295 35.237 11.6886 35.0593 12.1681 34.2895L18.7018 23.5703L22.2983 27.1829Z" fill="#3D4B53"/>
<path d="M16.6638 6.27756C16.6638 5.44845 15.9445 4.73779 15.1054 4.73779C14.2662 4.73779 13.5469 5.44845 13.5469 6.27756C13.5469 7.10666 14.2662 7.81732 15.1054 7.81732C15.9445 7.87654 16.6638 7.16588 16.6638 6.27756Z" fill="#3D4B53"/>
<path d="M34.0467 7.8764C34.8859 7.8764 35.6052 7.16574 35.6052 6.33664C35.6052 5.50753 34.8859 4.79688 34.0467 4.79688H20.0204C19.1812 4.79688 18.4619 5.50753 18.4619 6.33664C18.4619 7.16574 19.1812 7.8764 20.0204 7.8764H34.0467Z" fill="#3D4B53"/>
<path d="M39.981 1.00677C39.3216 0.414552 38.4825 0 37.5234 0H3.47661C2.51754 0 1.67836 0.414552 1.01901 1.00677C0.419591 1.65821 0 2.48731 0 3.43486V29.4924C0 30.4399 0.419591 31.3283 1.01901 31.9205C1.67836 32.5719 2.51754 32.9272 3.47661 32.9272C4.73538 32.9272 5.99415 32.9272 7.25292 32.9272C8.09211 32.9272 8.8114 32.2166 8.8114 31.3875C8.8114 30.5584 8.09211 29.8477 7.25292 29.8477C5.99415 29.8477 4.73538 29.8477 3.47661 29.8477C3.35673 29.8477 3.29678 29.7885 3.23684 29.7293C3.1769 29.6701 3.11696 29.5516 3.11696 29.4924V3.43486C3.11696 3.31641 3.1769 3.25719 3.23684 3.19797C3.29678 3.13875 3.41667 3.07953 3.47661 3.07953H37.4635C37.5833 3.07953 37.6433 3.13875 37.7032 3.19797C37.7632 3.25719 37.8231 3.37563 37.8231 3.43486V29.4924C37.8231 29.6108 37.7632 29.6701 37.7032 29.7293C37.6433 29.7885 37.5234 29.8477 37.4635 29.8477C30.6301 29.8477 23.7968 29.8477 17.0234 29.8477C16.1842 29.8477 15.4649 30.5584 15.4649 31.3875C15.4649 32.2166 16.1842 32.9272 17.0234 32.9272C23.8567 32.9272 30.6901 32.9272 37.4635 32.9272C38.4225 32.9272 39.3216 32.5127 39.9211 31.9205C40.5804 31.269 40.9401 30.4399 40.9401 29.4924V3.43486C41 2.48731 40.5804 1.65821 39.981 1.00677Z" fill="#BE1116"/>
<path d="M5.39453 6.27756C5.39453 7.10666 6.11383 7.81732 6.95301 7.81732C7.79219 7.81732 8.51149 7.10666 8.51149 6.27756C8.51149 5.44845 7.79219 4.73779 6.95301 4.73779C6.11383 4.73779 5.39453 5.44845 5.39453 6.27756Z" fill="#3D4B53"/>
</g>
<defs>
<clipPath id="clip0">
<rect width="41" height="35" fill="white"/>
</clipPath>
</defs>
</svg>
