<svg width="34" height="31" viewBox="0 0 34 31" fill="none" xmlns="http://www.w3.org/2000/svg">
<path fill-rule="evenodd" clip-rule="evenodd" d="M31.1127 0H2.88726C2.09077 0 1.34407 0.340251 0.846268 0.826324C0.298683 1.361 0 2.04151 0 2.81922V24.2064C0 24.9841 0.348465 25.7132 0.846268 26.1993C1.39385 26.734 2.09077 27.0256 2.88726 27.0256C8.56223 27.0256 11.9945 27.0256 17.6695 27.0256C18.3664 27.0256 18.9638 26.4424 18.9638 25.7619C18.9638 25.0813 18.3664 24.4981 17.6695 24.4981C11.9945 24.4981 8.56223 24.4981 2.88726 24.4981C2.7877 24.4981 2.73792 24.4495 2.68814 24.4008C2.63836 24.3522 2.58858 24.255 2.58858 24.2064V2.81922C2.58858 2.72201 2.63836 2.6734 2.68814 2.62479C2.73792 2.57618 2.83748 2.52758 2.88726 2.52758H31.1127C31.2123 2.52758 31.2621 2.57618 31.3119 2.62479C31.3616 2.6734 31.4114 2.77061 31.4114 2.81922V24.2064C31.4114 24.3036 31.3616 24.3522 31.3119 24.4008C31.2621 24.4495 31.1625 24.4981 31.1127 24.4981C30.0673 24.4981 30.7656 24.4981 29.7202 24.4981C29.0232 24.4981 28.4259 25.0813 28.4259 25.7619C28.4259 26.4424 29.0232 27.0256 29.7202 27.0256C30.7656 27.0256 30.0673 27.0256 31.1127 27.0256C31.9092 27.0256 32.6559 26.6854 33.1537 26.1993C33.6515 25.7132 34 24.9841 34 24.2064V2.81922C34 2.04151 33.6515 1.3124 33.1537 0.826324C32.6061 0.340251 31.9092 0 31.1127 0Z" fill="#BE1116"/>
<path fill-rule="evenodd" clip-rule="evenodd" d="M10.9689 6.89603C11.4898 6.97172 12.0568 7.01895 12.649 7.01183C13.9252 6.99303 15.1915 7.42733 16.0465 8.38534C17.6586 10.1915 17.4827 12.0425 17.4761 12.1434L29.9933 24.6775C30.5955 25.2806 30.9259 26.0811 30.9234 26.9314C30.9209 27.7818 30.5859 28.5804 29.9801 29.1799C29.3549 29.7987 28.5351 30.1066 27.7162 30.1043C26.8973 30.1019 26.0793 29.7892 25.4577 29.1667L12.9532 16.6452C12.8987 16.6487 12.8428 16.651 12.7851 16.6508C12.775 16.6508 12.7643 16.6499 12.7541 16.6497L10.5862 16.1211C9.53774 15.6819 8.67255 15.0048 8.00398 14.0932C6.93283 12.6327 6.58611 10.8431 6.50772 9.41407C6.43626 8.65951 6.51832 7.68302 6.56829 7.28909C6.59367 7.06946 6.85838 5.54705 6.85838 5.54705C6.85838 5.54705 8.33103 6.2156 8.68935 6.3403L10.9689 6.89603ZM12.6761 9.13692C13.3751 9.12997 14.0393 9.39746 14.5444 9.89538C15.0679 10.4115 15.355 11.1 15.353 11.8342C15.3528 11.8974 15.3497 11.9605 15.3451 12.0234L12.8179 14.5248C12.8048 14.5258 12.7931 14.5261 12.7849 14.5254C11.4226 14.3376 10.422 13.7863 9.72808 12.8401C8.7754 11.5411 8.61211 9.75024 8.62931 8.55298C9.6265 8.84685 11.0708 9.15689 12.6761 9.13692ZM28.4751 27.6727C28.0593 28.0842 27.3848 28.0822 26.9715 27.6683L17.4128 18.0966L18.9206 16.6041L28.4795 26.1759C28.6797 26.3764 29.1115 27.0428 28.4751 27.6727ZM17.4154 15.0969L15.9076 16.5894L14.8398 15.5202L16.3477 14.0278L17.4154 15.0969Z" fill="#3D4B53"/>
</svg>
